<svg xmlns="http://www.w3.org/2000/svg" viewBox="0 0 512 512" width="512" height="512">
  <defs>
    <radialGradient id="bg-julia" cx="50%" cy="50%" r="55%">
      <stop offset="0%" stop-color="#0d2b1e"/>
      <stop offset="100%" stop-color="#020d08"/>
    </radialGradient>
    <filter id="glow-julia" x="-30%" y="-30%" width="160%" height="160%">
      <feGaussianBlur stdDeviation="3.5" result="blur"/>
      <feMerge><feMergeNode in="blur"/><feMergeNode in="SourceGraphic"/></feMerge>
    </filter>
  </defs>
  <!-- Background -->
  <rect width="512" height="512" rx="32" fill="url(#bg-julia)"/>
  <!-- Web radial lines from center -->
  <g stroke="#064e3b" stroke-width="1.2" opacity="0.8">
    <line x1="256" y1="256" x2="256" y2="72"/>
    <line x1="256" y1="256" x2="344" y2="92"/>
    <line x1="256" y1="256" x2="414" y2="168"/>
    <line x1="256" y1="256" x2="440" y2="256"/>
    <line x1="256" y1="256" x2="414" y2="344"/>
    <line x1="256" y1="256" x2="344" y2="420"/>
    <line x1="256" y1="256" x2="256" y2="440"/>
    <line x1="256" y1="256" x2="168" y2="420"/>
    <line x1="256" y1="256" x2="98" y2="344"/>
    <line x1="256" y1="256" x2="72" y2="256"/>
    <line x1="256" y1="256" x2="98" y2="168"/>
    <line x1="256" y1="256" x2="168" y2="92"/>
  </g>
  <!-- Web concentric rings -->
  <g fill="none" stroke-linecap="round" stroke-linejoin="round">
    <!-- Ring 1 - innermost -->
    <polygon points="256,196 280,208 290,235 280,262 256,274 232,262 222,235 232,208"
             fill="none" stroke="#10b981" stroke-width="1.5" opacity="0.9"/>
    <!-- Ring 2 -->
    <polygon points="256,150 307,170 328,220 318,272 284,305 232,316 204,292 178,256 188,204 220,162"
             fill="none" stroke="#059669" stroke-width="1.5" opacity="0.7"/>
    <!-- Ring 3 -->
    <polygon points="256,104 336,132 380,200 376,286 320,350 242,378 170,358 114,296 108,212 156,140 220,108"
             fill="none" stroke="#047857" stroke-width="1.3" opacity="0.6"/>
    <!-- Ring 4 - outermost -->
    <polygon points="256,72 344,92 414,168 440,256 414,344 344,420 256,440 168,420 98,344 72,256 98,168 168,92"
             fill="none" stroke="#065f46" stroke-width="1.2" opacity="0.5"/>
  </g>
  <!-- Node dots at web intersections -->
  <g fill="#10b981" filter="url(#glow-julia)">
    <!-- Ring 1 nodes -->
    <circle cx="256" cy="196" r="4"/><circle cx="280" cy="208" r="3.5"/>
    <circle cx="290" cy="235" r="3.5"/><circle cx="280" cy="262" r="3.5"/>
    <circle cx="256" cy="274" r="4"/><circle cx="232" cy="262" r="3.5"/>
    <circle cx="222" cy="235" r="3.5"/><circle cx="232" cy="208" r="3.5"/>
    <!-- Ring 2 nodes -->
    <circle cx="256" cy="150" r="4.5"/><circle cx="307" cy="170" r="4"/>
    <circle cx="328" cy="220" r="4"/><circle cx="318" cy="272" r="4"/>
    <circle cx="284" cy="305" r="4.5"/><circle cx="232" cy="316" r="4.5"/>
    <circle cx="204" cy="292" r="4"/><circle cx="178" cy="256" r="4"/>
    <circle cx="188" cy="204" r="4"/><circle cx="220" cy="162" r="4"/>
    <!-- Ring 3 spot nodes -->
    <circle cx="256" cy="104" r="4.5"/><circle cx="380" cy="200" r="4"/>
    <circle cx="376" cy="286" r="4"/><circle cx="320" cy="350" r="4.5"/>
    <circle cx="170" cy="358" r="4.5"/><circle cx="108" cy="212" r="4"/>
    <circle cx="156" cy="140" r="4"/>
    <!-- Ring 4 nodes -->
    <circle cx="256" cy="72" r="5"/><circle cx="344" cy="92" r="4"/>
    <circle cx="414" cy="168" r="4"/><circle cx="440" cy="256" r="5"/>
    <circle cx="414" cy="344" r="4"/><circle cx="344" cy="420" r="4"/>
    <circle cx="256" cy="440" r="5"/><circle cx="168" cy="420" r="4"/>
    <circle cx="98" cy="344" r="4"/><circle cx="72" cy="256" r="5"/>
    <circle cx="98" cy="168" r="4"/><circle cx="168" cy="92" r="4"/>
  </g>
  <!-- Center hub -->
  <circle cx="256" cy="256" r="22" fill="#064e3b" stroke="#10b981" stroke-width="2.5" filter="url(#glow-julia)"/>
  <circle cx="256" cy="256" r="10" fill="#10b981" opacity="0.9" filter="url(#glow-julia)"/>
  <!-- Label -->
  <text x="256" y="474" text-anchor="middle" font-family="'Courier New', monospace" font-size="22" font-weight="bold" fill="#10b981" letter-spacing="6">JULIA</text>
  <text x="256" y="494" text-anchor="middle" font-family="'Courier New', monospace" font-size="10" fill="#065f46" letter-spacing="3">THE WEAVER</text>
</svg>
